<?xml version="1.0" encoding="UTF-8"?>
<svg id="Vrstva_1" data-name="Vrstva 1" xmlns="http://www.w3.org/2000/svg" xmlns:xlink="http://www.w3.org/1999/xlink" viewBox="0 0 84.043 87.982">
  <defs>
    <style>
      .cls-1 {
        fill: #fff;
      }

      .cls-2 {
        clip-path: url(#clippath-2);
      }

      .cls-3 {
        clip-path: url(#clippath-1);
      }

      .cls-4 {
        fill: #d9d9d9;
      }

      .cls-4, .cls-5, .cls-6, .cls-7 {
        fill-rule: evenodd;
      }

      .cls-5 {
        fill: #ff914d;
      }

      .cls-8 {
        clip-path: url(#clippath);
      }

      .cls-6 {
        fill: #100f0d;
      }

      .cls-9 {
        fill: none;
      }
    </style>
    <clipPath id="clippath">
      <rect class="cls-9" x="10.005" y="10.746" width="63.688" height="70.254"/>
    </clipPath>
    <clipPath id="clippath-1">
      <rect class="cls-9" x="28.174" y="30.868" width="27.576" height="27.576"/>
    </clipPath>
    <clipPath id="clippath-2">
      <rect class="cls-9" y="3.877" width="84.043" height="84.043"/>
    </clipPath>
  </defs>
  <g class="cls-8">
    <path class="cls-6" d="m41.993,80.935l-6.721-6.603c-1.319.19-2.619.435-3.898.733-3.501.816-6.85,2.027-9.995,3.583l-.457.226-3.976-8.055h-5.734l2.673-5.478-2.673-5.478h6.517l6.796,3.928.014-.004-11.08-10.885,2.093-3.096c-1.563.093-4.494-.566-5.547-2.426,1.704.077,3.875-.151,5.342-1.325-1.651.151-3.014-.405-4.32-1.223,1.412-.087,2.875-.367,4.141-1.153-1.389-.017-2.433-.402-3.399-1.257,1.233.009,2.173-.192,3.221-.785-1.037-.233-1.87-.667-2.556-1.537,1.095.038,2.228-.134,3.284-.804-1.295-.041-2.232-.501-3.157-1.327,1.065.087,2.156-.314,3.157-1.257-.803.076-1.472-.146-2.198-.506.852-.547,1.653-1.287,2.134-2.637-.332.105-.69.087-1.035-.053.895-1.298,1.661-3.051,2.032-5.31.371,2.259,1.137,4.011,2.032,5.31-.345.14-.703.157-1.035.053.481,1.351,1.282,2.09,2.134,2.637-.726.361-1.395.582-2.198.506,1.001.943,2.092,1.345,3.157,1.257-.925.827-1.862,1.286-3.157,1.327,1.057.67,2.19.841,3.284.804-.686.87-1.519,1.304-2.556,1.537.765.433,1.472.658,2.278.743l1.9-2.803c-.46-.172-.898-.406-1.329-.676.673-.042,1.361-.139,2.021-.345l.434-.64c-.712-.127-1.306-.423-1.868-.921.975.007,1.718-.152,2.547-.621-.82-.184-1.479-.527-2.021-1.215.866.03,1.762-.106,2.597-.635-1.024-.032-1.765-.396-2.496-1.05.842.069,1.704-.248,2.496-.994-.635.06-1.164-.115-1.738-.401.674-.433,1.307-1.017,1.688-2.085-.263.083-.546.069-.819-.042.707-1.027,1.314-2.412,1.607-4.198.293,1.786.899,3.172,1.607,4.198-.273.11-.556.124-.819.042.314.882.801,1.434,1.34,1.844l14.257-21.035,14.257,21.035c.539-.409,1.026-.962,1.34-1.843-.263.083-.546.069-.819-.042.707-1.027,1.314-2.412,1.607-4.198.293,1.786.899,3.172,1.607,4.198-.273.11-.556.124-.819.042.381,1.068,1.014,1.653,1.688,2.085-.574.285-1.103.46-1.738.401.792.746,1.654,1.064,2.496.994-.731.654-1.472,1.017-2.496,1.049.835.529,1.732.665,2.597.635-.543.688-1.201,1.031-2.021,1.215.829.469,1.571.628,2.547.621-.562.497-1.157.793-1.868.921l.434.64c.66.207,1.347.303,2.021.345-.431.27-.869.503-1.329.676l1.9,2.803c.806-.086,1.513-.31,2.278-.743-1.037-.233-1.87-.667-2.556-1.537,1.095.038,2.228-.134,3.284-.804-1.295-.041-2.232-.501-3.157-1.327,1.065.087,2.156-.314,3.157-1.257-.803.076-1.472-.146-2.198-.506.852-.547,1.653-1.287,2.134-2.637-.332.105-.69.087-1.035-.053.895-1.298,1.661-3.051,2.032-5.31.371,2.259,1.137,4.011,2.032,5.31-.345.14-.703.157-1.035.053.481,1.351,1.282,2.09,2.134,2.637-.726.361-1.395.582-2.198.506,1.001.943,2.092,1.345,3.157,1.257-.925.827-1.862,1.286-3.157,1.327,1.057.67,2.19.841,3.284.804-.686.87-1.519,1.304-2.556,1.537,1.048.594,1.987.795,3.221.785-.967.856-2.011,1.24-3.399,1.257,1.265.786,2.728,1.065,4.141,1.153-1.306.818-2.669,1.374-4.32,1.223,1.468,1.174,3.638,1.402,5.342,1.325-1.052,1.86-3.983,2.519-5.547,2.426l2.093,3.096-11.08,10.885.014.004,6.796-3.928h6.517l-2.673,5.478,2.673,5.478h-5.734l-3.976,8.055-.457-.226c-3.145-1.556-6.494-2.767-9.995-3.583-1.28-.298-2.58-.544-3.898-.733l-6.721,6.603h0Z"/>
    <path class="cls-5" d="m55.265,63.713c-4.248-.99-8.677-1.514-13.231-1.514h-.084c-4.554,0-8.983.524-13.231,1.514-4.21.981-8.243,2.419-12.044,4.258l4.709,9.539c3.084-1.484,6.35-2.646,9.756-3.439,3.474-.81,7.093-1.238,10.809-1.238h.084c3.717,0,7.335.429,10.809,1.238,3.406.794,6.673,1.955,9.756,3.439l4.709-9.539c-3.801-1.838-7.834-3.277-12.044-4.258h0Z"/>
    <path class="cls-5" d="m41.993,22.553l5.61,7.042-5.61-4.524-5.61,4.524,5.61-7.042Zm0-5.525l-8.376,12.614,8.376-10.069,8.376,10.069-8.376-12.614Z"/>
  </g>
  <path class="cls-1" d="m32.599,70.755l-1.595-4.592.803-.113,1.04,3.164.25-3.347.932-.131,1.146,3.206.133-3.387.786-.11-.275,4.856-.833.117-1.272-3.424-.269,3.641-.845.119Z"/>
  <path class="cls-1" d="m38.184,67.709c-.005-.485.063-.895.205-1.226.106-.243.251-.464.437-.658.186-.195.39-.342.612-.437.296-.129.638-.196,1.026-.201.703-.007,1.268.205,1.695.637.426.432.644,1.036.651,1.812.009.771-.193,1.375-.607,1.814-.414.439-.971.663-1.672.67-.709.008-1.276-.201-1.7-.63-.423-.429-.639-1.022-.647-1.782Zm.992-.043c.006.54.135.949.387,1.225s.571.412.955.407c.384-.004.698-.145.941-.425.243-.279.362-.695.356-1.248-.006-.547-.131-.954-.373-1.22-.243-.268-.562-.397-.96-.394-.397.005-.715.144-.955.419s-.357.687-.351,1.235Z"/>
  <path class="cls-1" d="m45.281,70.15l.418-4.713.96.085-.348,3.913,2.385.212-.071.8-3.344-.297Z"/>
  <path class="cls-1" d="m50.047,70.665l.809-4.702,3.223.554-.137.796-2.273-.392-.191,1.113,1.963.338-.137.796-1.963-.338-.344,1.998-.949-.163Z"/>
  <rect class="cls-9" width="84.043" height="87.982"/>
  <g class="cls-3">
    <path class="cls-4" d="m55.812,47.727s-.677-1.265-1.964-2.393c0,0,.61.205,1.321.274,0,0-.508-1.06-1.897-1.915,0,0,.948.068,1.66-.137-.847-.342-1.727-1.368-2.269-2.462.26-3.154.02-7.509-1.742-10.089-.093-.137-.298-.131-.385.009-.901,1.442-4.053,3.557-4.714,5.464-.144,0,.014-1.147.472-1.845-1.548,0-3.052-.414-4.3-.414s-2.752.414-4.3.414c.458.698.616,1.845.472,1.845-.661-1.908-3.812-4.023-4.714-5.465-.088-.14-.292-.146-.385-.009-1.763,2.58-2.003,6.935-1.742,10.089-.542,1.094-1.422,2.12-2.269,2.462.711.205,1.66.137,1.66.137-1.389.855-1.897,1.915-1.897,1.915.711-.068,1.321-.274,1.321-.274-1.287,1.128-1.964,2.393-1.964,2.393.847-.137,1.626-.41,1.626-.41-.745,1.231-1.423,3.316-1.355,4.513.61-1.163,1.829-1.983,1.829-1.983-.508,1.299-.644,2.94-.508,3.522.203-1.197.677-2.052.677-2.052-.102,1.47.542,2.804.542,2.804.068-1.299.982-2.291.982-2.291-.169,1.334.169,2.94.44,3.419.136-1.197.982-2.633.982-2.633-.102,1.915.373,3.624.982,4.547-.135-1.163.542-2.633.542-2.633.102,1.539.474,3.316.948,4.034-.135-1.778.237-3.282.237-3.282.373,1.368,1.693,2.667,1.693,2.667-.779-2.633-1.016-5.265-.813-6.188.61.479.949,2.017.949,3.043,0,.083.002.168.006.256.038.926.629,1.657,1.391,1.963.087.512.55,1.259,1.11,1.358-.169-.342-.136-.615-.136-.615.44.479,1.389.547,1.694.957.305-.41,1.253-.479,1.694-.957,0,0,.034.274-.136.615.56-.1,1.023-.846,1.11-1.358.761-.306,1.353-1.038,1.391-1.963.004-.088.006-.174.006-.256,0-1.026.339-2.564.948-3.043.203.923-.034,3.556-.813,6.188,0,0,1.321-1.299,1.693-2.667,0,0,.373,1.504.237,3.282.474-.718.847-2.496.948-4.034,0,0,.677,1.47.542,2.633.61-.923,1.084-2.633.982-4.547,0,0,.847,1.436.982,2.633.271-.479.61-2.086.44-3.419,0,0,.915.992.982,2.291,0,0,.644-1.334.542-2.804,0,0,.474.855.677,2.052.136-.581,0-2.222-.508-3.522,0,0,1.219.821,1.829,1.983.068-1.197-.61-3.282-1.355-4.513,0,0,.779.274,1.626.41h0Z"/>
    <path class="cls-7" d="m50.596,46.497s.407.957,1.592,1.607c-2.037.309-3.148-2.176-4.282-2.176-.545,2.594-2.331,2.501-3.407,4.023,0,0,.245-1.494.921-2.039-.698-.218-.853-1.134-1.395-1.134,0-.763-.218-2.791,3.597-2.791,0,0-1.831-.959-3.205.196.196-.894,1.395-1.243,2.529-1.177-.523-.48-1.94-.676-2.616.174.109-.501-.044-.763,1.09-2.049-2.573,1.483-2.682,5.4-1.836,6.87,0,0-1.118-.591-1.592-2.008-.507,1.461-1.592,2.008-1.592,2.008.847-1.47.737-5.388-1.835-6.87,1.134,1.286.981,1.548,1.09,2.049-.676-.85-2.093-.654-2.616-.174,1.134-.065,2.333.283,2.529,1.177-1.373-1.155-3.205-.196-3.205-.196,3.815,0,3.597,2.028,3.597,2.791-.542,0-.698.916-1.395,1.134.676.545.921,2.039.921,2.039-1.075-1.521-2.861-1.428-3.407-4.023-1.134,0-2.245,2.485-4.282,2.176,1.186-.65,1.592-1.607,1.592-1.607-1.355-.205-2.947.205-2.947.205,1.118-1.641,2.032-2.496,2.98-3.043-.948-.103-1.761-.752-1.761-.752,1.889-.642,3.131-1.732,3.131-1.732-.745.103-2.251.33-2.454-.558-.203-.889-.576-6.325.948-8.308.203,1.402,2.777,3.453,2.438,4.616-.339,1.163-1.389.65-1.389.65.847,1.06,2.134.376,2.134.376-.034.65-.165,1.766-.436,2.244,1.417-.698,2.42-2.18,2.42-2.18,1.05.308,1.064.791,2.419.927-.915-.752-1.253-1.915-1.253-1.915,1.084-.308,2.371,1.14,2.371,1.14,0,0,1.287-1.448,2.371-1.14,0,0-.339,1.163-1.253,1.915,1.355-.137,1.369-.62,2.419-.927,0,0,1.003,1.483,2.42,2.18-.271-.479-.402-1.595-.436-2.244,0,0,1.287.684,2.134-.376,0,0-1.05.513-1.389-.65-.339-1.163,2.235-3.214,2.438-4.616,1.524,1.983,1.152,7.419.949,8.308-.203.889-1.709.661-2.454.558,0,0,1.243,1.09,3.131,1.732,0,0-.813.65-1.761.752.948.547,1.863,1.402,2.981,3.043,0,0-1.592-.41-2.947-.205h0Z"/>
    <path class="cls-7" d="m43.492,55.433c-.44.376-1.16.159-1.16.774,0,.313.193.521.482.688.187.109.69.184.935.23,0,0-.766.397-1.756.397s-1.756-.397-1.756-.397c.245-.046.748-.121.935-.23.288-.168.482-.375.482-.688,0-.615-.72-.398-1.16-.774-.44-.376-.635-1.859-.398-2.201.237-.342,1.255-.416,1.897-.416s1.66.074,1.897.416c.237.342.042,1.824-.398,2.201h0Z"/>
    <path class="cls-4" d="m44.864,45.65c.376.548,2.212.99,2.212-.864-.981-.506-1.565.864-2.212.864h0Z"/>
    <path class="cls-4" d="m39.122,45.65c-.647,0-1.231-1.369-2.212-.864,0,1.854,1.837,1.412,2.212.864h0Z"/>
  </g>
  <g class="cls-2">
    <path d="m41.99,6.813C20.456,6.813,2.936,24.334,2.936,45.868s17.52,39.054,39.055,39.054,39.055-17.519,39.055-39.054c0-21.535-17.521-39.056-39.055-39.056Zm0,81.045C18.837,87.858,0,69.022,0,45.868S18.837,3.877,41.99,3.877s41.99,18.837,41.99,41.992-18.836,41.989-41.99,41.989Z"/>
  </g>
</svg>